<?xml version="1.0" encoding="UTF-8"?>
<svg id="Capa_2" data-name="Capa 2" xmlns="http://www.w3.org/2000/svg" xmlns:xlink="http://www.w3.org/1999/xlink" viewBox="0 0 343.62 92.15">
  <defs>
    <style>
      .cls-1 {
        fill: #fff;
      }

      .cls-2 {
        fill: #019df4;
      }

      .cls-3, .cls-4 {
        fill: none;
      }

      .cls-4 {
        clip-path: url(#clippath);
      }
    </style>
    <clipPath id="clippath">
      <rect class="cls-3" x="179.62" width="164" height="90" rx="12.03" ry="12.03"/>
    </clipPath>
  </defs>
  <g id="Capa_1-2" data-name="Capa 1">
    <path class="cls-2" d="m93.85,89.3c-1.61-.15-3.05-1.05-4.32-2.71-3.22-3.86-4.83-8.11-4.83-12.74,0-3.91,1-9.16,3-15.75.68-2.34,1.03-3.91,1.03-4.69,0-1.03-.29-1.56-.88-1.61-1.22,0-3.93,1.56-8.13,4.69-4.15,3.08-8.84,5.66-14.06,7.76-2.1.88-4.2,1.32-6.3,1.32-2.83-.2-5.22-1.34-7.18-3.44-2.1-2.05-3.15-4.2-3.15-6.45.15-2,.98-4,2.49-6.01,10.94-14.21,21.95-28.42,33.03-42.63,1.03-1.46,2.37-2.2,4.03-2.2,1.71.15,3.27.73,4.69,1.76,1.71,1.42,2.56,3.03,2.56,4.83-.15,1.51-.76,2.95-1.83,4.32-15.58,19.34-23.36,29.54-23.36,30.62,0,.39.46.59,1.39.59,2.34,0,10.77-4.35,25.27-13.04,1.07-.59,2.12-.88,3.15-.88,1.81.1,4.05,1.34,6.74,3.74,1.22.93,1.83,2.08,1.83,3.44-.15,1.66-.61,3.15-1.39,4.47-1.27,2.59-2.86,6.35-4.76,11.28-3.42,8.84-5.32,15.94-5.71,21.31,0,2.39.2,4.22.59,5.49.39,1.27.59,2.44.59,3.52,0,1.95-1.49,2.95-4.47,3Z"/>
    <path class="cls-2" d="m131.6,92.15c-2.39,0-4.79-.51-7.18-1.54-6.15-2.54-9.45-7.49-9.89-14.87l-.15-5.35c0-17.29,4.25-33.5,12.74-48.63,1.9-3.32,3.96-5.08,6.15-5.27,2.39,0,4.69,1,6.88,3,2.05,2.1,4.49,3.81,7.32,5.13,2.29,1.17,4.44,2.56,6.45,4.17,3.91,3.17,5.86,8.89,5.86,17.14,0,5.86-1.29,13.09-3.88,21.68-2.54,8.54-7.18,15.45-13.92,20.73-3.32,2.54-6.79,3.81-10.4,3.81Zm-1.03-10.55c2.88-.29,5.66-2.78,8.35-7.47,2.69-4.69,5-10.3,6.96-16.85,1.81-6.4,2.71-11.38,2.71-14.94,0-5.27-2.27-9.47-6.81-12.6-.93-.63-1.76-.95-2.49-.95-3.17,0-6.93,9.62-11.28,28.86-1.51,6.45-2.27,11.69-2.27,15.75,0,5.47,1.59,8.2,4.76,8.2h.07Z"/>
    <path class="cls-2" d="m5.39,68.95c-1.3-.29-1.84-.92-1.62-1.89.17-.76,1.09-1.38,2.75-1.85.98-.28,1.8-.57,2.44-.87.67-.29,1.08-.79,1.23-1.5.08-.56-.05-.98-.41-1.26-.36-.28-1.78-1.18-4.26-2.72-2.46-1.55-3.27-4.32-2.45-8.31.39-1.75,1.3-3.64,2.73-5.67,3.81-5.36,8.74-9.35,14.78-11.99,1.4-.55,2.67-.7,3.79-.45,1.51.33,2.57,1.13,3.19,2.39.64,1.24.91,2.13.79,2.67-.25,1.11-1.02,1.79-2.32,2.07-.1,0-.21,0-.33.02-.1,0-.19-.01-.26-.03-.53-.12-.95-.5-1.25-1.15-.19-.4-.46-.64-.8-.72-.53-.12-1.41.22-2.62,1.01-2.5,1.55-5.73,4.74-9.69,9.58-1.74,2.25-2.72,3.89-2.95,4.9-.36,1.64.68,3.14,3.14,4.51,2.39,1.31,4.26,2.95,5.6,4.9.4.65.54,1.24.42,1.77-.31,1.39-2.13,2.65-5.46,3.77-2.72.9-4.87,1.17-6.45.82Z"/>
    <path class="cls-2" d="m23.2,85.56l-.34-.08c-.29-.06-.65-.17-1.1-.3s-.94-.54-1.47-1.2c-.52-.65-.7-1.45-.55-2.37,2.6-11.43,9.95-27.03,22.06-46.81.75-1.23,1.75-1.76,2.99-1.59,1.89.42,2.62,1.58,2.2,3.49-.14.65-1.17,2.55-3.07,5.71-10.63,17.81-16.74,30.28-18.32,37.41-.36,1.64-.5,3.27-.4,4.89-.17.76-.83,1.05-1.99.85Z"/>
    <path class="cls-1" d="m97.12,85.12c-1.61-.15-3.05-1.05-4.32-2.71-3.22-3.86-4.83-8.11-4.83-12.74,0-3.91,1-9.16,3-15.75.68-2.34,1.03-3.91,1.03-4.69,0-1.03-.29-1.56-.88-1.61-1.22,0-3.93,1.56-8.13,4.69-4.15,3.08-8.84,5.66-14.06,7.76-2.1.88-4.2,1.32-6.3,1.32-2.83-.2-5.22-1.34-7.18-3.44-2.1-2.05-3.15-4.2-3.15-6.45.15-2,.98-4,2.49-6.01,10.94-14.21,21.95-28.42,33.03-42.63,1.03-1.46,2.37-2.2,4.03-2.2,1.71.15,3.27.73,4.69,1.76,1.71,1.42,2.56,3.03,2.56,4.83-.15,1.51-.76,2.95-1.83,4.32-15.58,19.34-23.36,29.54-23.36,30.62,0,.39.46.59,1.39.59,2.34,0,10.77-4.35,25.27-13.04,1.07-.59,2.12-.88,3.15-.88,1.81.1,4.05,1.34,6.74,3.74,1.22.93,1.83,2.08,1.83,3.44-.15,1.66-.61,3.15-1.39,4.47-1.27,2.59-2.86,6.35-4.76,11.28-3.42,8.84-5.32,15.94-5.71,21.31,0,2.39.2,4.22.59,5.49.39,1.27.59,2.44.59,3.52,0,1.95-1.49,2.95-4.47,3Z"/>
    <path class="cls-1" d="m134.87,87.98c-2.39,0-4.79-.51-7.18-1.54-6.15-2.54-9.45-7.49-9.89-14.87l-.15-5.35c0-17.29,4.25-33.5,12.74-48.63,1.9-3.32,3.96-5.08,6.15-5.27,2.39,0,4.69,1,6.88,3,2.05,2.1,4.49,3.81,7.32,5.13,2.29,1.17,4.44,2.56,6.45,4.17,3.91,3.17,5.86,8.89,5.86,17.14,0,5.86-1.29,13.09-3.88,21.68-2.54,8.54-7.18,15.45-13.92,20.73-3.32,2.54-6.79,3.81-10.4,3.81Zm-1.03-10.55c2.88-.29,5.66-2.78,8.35-7.47,2.69-4.69,5-10.3,6.96-16.85,1.81-6.4,2.71-11.38,2.71-14.94,0-5.27-2.27-9.47-6.81-12.6-.93-.63-1.76-.95-2.49-.95-3.17,0-6.93,9.62-11.28,28.86-1.51,6.45-2.27,11.69-2.27,15.75,0,5.47,1.59,8.2,4.76,8.2h.07Z"/>
    <path class="cls-1" d="m8.66,66.78c-1.3-.29-1.84-.92-1.62-1.89.17-.76,1.09-1.38,2.75-1.85.98-.28,1.8-.57,2.44-.87.67-.29,1.08-.79,1.23-1.5.08-.56-.05-.98-.41-1.26-.36-.28-1.78-1.18-4.26-2.72-2.46-1.55-3.27-4.32-2.45-8.31.39-1.75,1.3-3.64,2.73-5.67,3.81-5.36,8.74-9.35,14.78-11.99,1.4-.55,2.67-.7,3.79-.45,1.51.33,2.57,1.13,3.19,2.39.64,1.24.91,2.13.79,2.67-.25,1.11-1.02,1.79-2.32,2.07-.1,0-.21,0-.33.02-.1,0-.19-.01-.26-.03-.53-.12-.95-.5-1.25-1.15-.19-.4-.46-.64-.8-.72-.53-.12-1.41.22-2.62,1.01-2.5,1.55-5.73,4.74-9.69,9.58-1.74,2.25-2.72,3.89-2.95,4.9-.36,1.64.68,3.14,3.14,4.51,2.39,1.31,4.26,2.95,5.6,4.9.4.65.54,1.24.42,1.77-.31,1.39-2.13,2.65-5.46,3.77-2.72.9-4.87,1.17-6.45.82Z"/>
    <path class="cls-1" d="m26.47,83.39l-.34-.08c-.29-.06-.65-.17-1.1-.3s-.94-.54-1.47-1.2c-.52-.65-.7-1.45-.55-2.37,2.6-11.43,9.95-27.03,22.06-46.81.75-1.23,1.75-1.76,2.99-1.59,1.89.42,2.62,1.58,2.2,3.49-.14.65-1.17,2.55-3.07,5.71-10.63,17.81-16.74,30.28-18.32,37.41-.36,1.64-.5,3.27-.4,4.89-.17.76-.83,1.05-1.99.85Z"/>
    <path class="cls-1" d="m53.13,16.73c-1.35,0-2.13-.61-2.13-1.85,0-.63.21-1.07.57-1.37.48-.38,1.22-.53,2.29-.53h1.89v3.07c-.76.38-1.79.67-2.63.67Zm-.38,1.41c1.24,0,2.34-.4,3.24-.99l.11.69h1.41v-6.86c0-1.35-.25-2.17-.91-2.8-.65-.61-1.68-.95-3.22-.95-.99,0-2.17.13-3.14.36l.06,1.35c1.01-.17,2-.25,2.78-.25,1.03,0,1.71.19,2.15.61.38.38.53.91.53,1.75v.65h-2.15c-1.49,0-2.72.27-3.5.99-.55.51-.88,1.26-.88,2.23s.32,1.71.82,2.23c.63.65,1.58.99,2.69.99Zm-9.47-.29h1.75v-8.34c.74-.46,1.6-.69,2.51-.69.29,0,.67.02.91.04v-1.56c-.23-.04-.48-.06-.67-.06-.91,0-1.94.36-2.93,1.18l-.11-.88h-1.45v10.32Zm-7.05,0h1.75v-8.34c.74-.46,1.6-.69,2.51-.69.29,0,.67.02.91.04v-1.56c-.23-.04-.48-.06-.67-.06-.91,0-1.94.36-2.93,1.18l-.11-.88h-1.45v10.32Zm-7.1-1.14c-2.11,0-2.86-1.39-2.86-4.02s.76-4.02,2.86-4.02,2.86,1.39,2.86,4.02-.76,4.02-2.86,4.02Zm0,1.43c3.2,0,4.7-2.02,4.7-5.45s-1.49-5.45-4.7-5.45-4.7,2.02-4.7,5.45,1.49,5.45,4.7,5.45Zm-15.6-.29h1.75v-8.4c.84-.4,1.96-.67,2.88-.67.76,0,1.31.17,1.66.53.36.36.51.86.51,1.75v6.8h1.75v-7.01c0-1.28-.29-2.13-.86-2.69-.59-.61-1.47-.91-2.59-.91s-2.32.38-3.35.95V2.79h-1.75v15.05ZM3.47,12.54l2.17-7.12h.02l2.32,7.12H3.47Zm-3.47,5.31h1.83l1.18-3.83h5.45l1.26,3.83h1.96L6.72,3.45h-2.15L0,17.85Z"/>
    <path class="cls-1" d="m322.18,76.7c1.77,0,2.66-.71,2.66-1.94,0-2.44-3.22-1.49-3.22-2.49,0-.34.34-.48.95-.48.48,0,1.2.1,1.82.26l.13-1.26c-.64-.22-1.37-.32-1.96-.32-1.77,0-2.56.81-2.56,1.9,0,2.44,3.21,1.42,3.21,2.47,0,.42-.41.54-1.06.54s-1.46-.13-1.9-.28l-.13,1.28c.47.17,1.37.32,2.07.32Zm-5.9-1.36c-.37,0-.79-.05-1.07-.17v-3.15c.29-.08.75-.16,1.02-.16.78,0,1.05.4,1.05,1.66,0,1.42-.28,1.82-1,1.82Zm-2.79,3.9h1.72v-2.97c.45.28,1.05.43,1.58.43,1.34,0,2.3-.83,2.3-3.15,0-1.09-.24-2.03-.79-2.57-.34-.32-.82-.51-1.41-.51-.72,0-1.35.26-1.85.6l-.05-.43h-1.49v8.6Zm-4.03-3.89c-.34,0-.75-.13-1.02-.29v-3.06c.28-.11.65-.16,1.02-.16.72,0,1.05.32,1.05,1.73,0,1.32-.26,1.77-1.05,1.77Zm.52,1.35c.73,0,1.26-.22,1.67-.69.43-.49.66-1.4.66-2.45,0-2.29-.91-3.09-2.25-3.09-.57,0-1.22.16-1.62.4v-2.94h-1.72v8.6h1.42l.08-.37c.49.32,1.14.54,1.76.54Zm-13.12-.17h1.58v-4.79l1.76,2.91h1.44l1.71-2.86v4.74h1.72v-8.23h-1.44l-2.68,4.6-2.6-4.6h-1.48v8.23Zm-4.54-1.21c-.97,0-1.36-.61-1.36-2.89s.39-3.02,1.36-3.02,1.36.75,1.36,3.02-.38,2.89-1.36,2.89Zm0,1.38c2.29,0,3.15-1.46,3.15-4.27s-.87-4.28-3.15-4.28-3.15,1.47-3.15,4.28.87,4.27,3.15,4.27Zm-8.76-.17h1.84l2.31-6.56c.14-.4.19-.79.19-1.18,0-.18-.02-.4-.08-.49h-5.37v1.23h3.84l-2.73,7Zm-9.16-3.33c.01-1.19.51-1.92,1.5-1.92s1.42.79,1.46,1.92h-2.96Zm1.83,3.5c.54,0,1.24-.08,1.74-.23l-.1-.75c-.46.1-1.03.16-1.46.16-.75,0-1.19-.16-1.5-.45-.35-.32-.52-.85-.52-1.5h3.8c.1,0,.14-.04.14-.13v-.23c0-1.94-.79-3.1-2.44-3.1-1.5,0-2.55,1.02-2.55,3.13,0,1.06.24,1.86.77,2.39.48.48,1.19.71,2.11.71Zm-6.65-.82c-1.06,0-1.6-.7-1.6-2.25,0-1.38.4-2.32,1.6-2.32.4,0,.93.12,1.36.29v3.93c-.42.2-.94.35-1.36.35Zm-.28.82c.55,0,1.26-.22,1.74-.53l.07.36h.82v-8.6h-1v2.96c-.47-.26-1.06-.42-1.56-.42-1.54,0-2.44,1.2-2.44,3.15,0,2.04.87,3.08,2.37,3.08Zm-5.89,0c1.42,0,2.38-.55,2.38-1.8,0-2.11-3.28-1.48-3.28-2.8,0-.55.45-.83,1.29-.83.48,0,1.02.07,1.55.19l.08-.73c-.47-.14-1.13-.25-1.72-.25-1.25,0-2.14.55-2.14,1.7,0,2.17,3.28,1.48,3.28,2.8,0,.6-.52.93-1.48.93-.52,0-1.17-.08-1.65-.22l-.05.77c.45.14,1.17.25,1.73.25Zm-6.95-3.5c.01-1.19.51-1.92,1.5-1.92s1.42.79,1.46,1.92h-2.96Zm1.83,3.5c.54,0,1.24-.08,1.74-.23l-.1-.75c-.46.1-1.03.16-1.46.16-.75,0-1.19-.16-1.5-.45-.35-.32-.52-.85-.52-1.5h3.8c.1,0,.14-.04.14-.13v-.23c0-1.94-.79-3.1-2.44-3.1-1.5,0-2.55,1.02-2.55,3.13,0,1.06.24,1.86.77,2.39.48.48,1.19.71,2.11.71Zm-6.65-.82c-1.06,0-1.6-.7-1.6-2.25,0-1.38.4-2.32,1.6-2.32.4,0,.93.12,1.36.29v3.93c-.42.2-.94.35-1.36.35Zm-.28.82c.55,0,1.26-.22,1.74-.53l.07.36h.82v-8.6h-1v2.96c-.47-.26-1.06-.42-1.56-.42-1.54,0-2.44,1.2-2.44,3.15,0,2.04.87,3.08,2.37,3.08Zm-8.39,0c1.42,0,2.38-.55,2.38-1.8,0-2.11-3.28-1.48-3.28-2.8,0-.55.45-.83,1.29-.83.48,0,1.02.07,1.55.19l.08-.73c-.47-.14-1.13-.25-1.72-.25-1.25,0-2.14.55-2.14,1.7,0,2.17,3.28,1.48,3.28,2.8,0,.6-.52.93-1.48.93-.52,0-1.17-.08-1.65-.22l-.05.77c.45.14,1.17.25,1.73.25Zm-6.95-3.5c.01-1.19.51-1.92,1.5-1.92s1.42.79,1.46,1.92h-2.96Zm1.83,3.5c.54,0,1.24-.08,1.74-.23l-.1-.75c-.46.1-1.03.16-1.46.16-.75,0-1.19-.16-1.5-.45-.35-.32-.52-.85-.52-1.5h3.8c.1,0,.14-.04.14-.13v-.23c0-1.94-.79-3.1-2.44-3.1-1.5,0-2.55,1.02-2.55,3.13,0,1.06.24,1.86.77,2.39.48.48,1.19.71,2.11.71Zm-9.15-.17h1v-4.8c.48-.23,1.12-.38,1.65-.38.43,0,.75.1.95.3s.29.49.29,1v3.89h1v-4.01c0-.73-.17-1.21-.49-1.54-.34-.35-.84-.52-1.48-.52-.69,0-1.42.23-2.03.6l-.05-.43h-.83v5.9Zm-4.2-.64c-.77,0-1.22-.35-1.22-1.06,0-.36.12-.61.32-.78.28-.22.7-.3,1.31-.3h1.08v1.76c-.43.22-1.02.38-1.5.38Zm-.22.81c.71,0,1.34-.23,1.85-.57l.06.4h.81v-3.92c0-.77-.14-1.24-.52-1.6-.37-.35-.96-.54-1.84-.54-.57,0-1.24.07-1.79.2l.04.77c.58-.1,1.14-.14,1.59-.14.59,0,.97.11,1.23.35.22.22.3.52.3,1v.37h-1.23c-.85,0-1.55.16-2,.57-.31.29-.51.72-.51,1.27s.18.97.47,1.28c.36.37.9.57,1.54.57Zm-4.43-.17h1v-8.6h-1v8.6Zm-3.98-.66c-.51,0-1.08-.16-1.43-.36v-3.79c.46-.24,1.05-.4,1.5-.4.99,0,1.43.72,1.43,2.23,0,1.68-.43,2.32-1.5,2.32Zm-2.43,3.37h1v-2.98c.43.28,1.07.44,1.68.44,1.41,0,2.3-.93,2.3-3.14,0-1.88-.73-3.09-2.26-3.09-.54,0-1.23.19-1.84.6l-.05-.43h-.83v8.6Zm-9.09-2.71h1v-4.8c.48-.23,1.12-.38,1.65-.38.43,0,.75.1.95.3s.29.49.29,1v3.89h1v-4.01c0-.73-.17-1.21-.49-1.54-.34-.35-.84-.52-1.48-.52-.69,0-1.42.23-2.03.6l-.05-.43h-.83v5.9Zm-6.28,0h4.79v-.84h-3.72v-2.89h2.88v-.87h-2.88v-2.79h3.55l.1-.84h-4.72v8.23Z"/>
    <path class="cls-1" d="m314.53,38.3c4.12,0,6.19-1.65,6.19-4.51,0-5.68-7.5-3.47-7.5-5.8,0-.78.78-1.12,2.21-1.12,1.12,0,2.8.22,4.23.62l.31-2.94c-1.48-.5-3.19-.76-4.56-.76-4.12,0-5.96,1.88-5.96,4.42,0,5.68,7.48,3.3,7.48,5.74,0,.98-.95,1.26-2.46,1.26s-3.39-.31-4.42-.64l-.31,2.97c1.09.39,3.19.76,4.82.76Zm-15.74-8.62c.08-1.76.81-2.86,2.44-2.86s2.41,1.12,2.41,2.86h-4.84Zm3.33,8.62c1.71,0,3.3-.22,4.62-.48l-.31-2.91c-1.04.2-2.44.34-3.42.34-2.69,0-4.12-.64-4.23-2.97h8.43c.22,0,.34-.08.34-.31v-1.26c0-4.76-2.18-6.92-6.3-6.92s-6.66,2.46-6.66,7.28c0,2.18.48,4.14,1.85,5.46,1.18,1.12,3.11,1.76,5.68,1.76Zm-15.67,0c4.12,0,6.19-1.65,6.19-4.51,0-5.68-7.5-3.47-7.5-5.8,0-.78.78-1.12,2.21-1.12,1.12,0,2.8.22,4.23.62l.31-2.94c-1.48-.5-3.19-.76-4.56-.76-4.12,0-5.96,1.88-5.96,4.42,0,5.68,7.48,3.3,7.48,5.74,0,.98-.95,1.26-2.46,1.26s-3.39-.31-4.42-.64l-.31,2.97c1.09.39,3.19.76,4.82.76Zm-15.74-8.62c.08-1.76.81-2.86,2.44-2.86s2.41,1.12,2.41,2.86h-4.84Zm3.33,8.62c1.71,0,3.3-.22,4.62-.48l-.31-2.91c-1.04.2-2.44.34-3.42.34-2.69,0-4.12-.64-4.23-2.97h8.43c.22,0,.34-.08.34-.31v-1.26c0-4.76-2.18-6.92-6.3-6.92s-6.66,2.46-6.66,7.28c0,2.18.48,4.14,1.85,5.46,1.18,1.12,3.11,1.76,5.68,1.76Zm-31.03-.39h4v-10.33c.67-.25,1.68-.45,2.38-.45s1.32.11,1.68.45c.28.28.42.67.42,1.37v8.96h4v-9.44c0-.34-.03-.67-.06-.98.67-.2,1.65-.36,2.32-.36.81,0,1.37.11,1.74.45.28.28.42.67.42,1.37v8.96h4v-9.44c0-1.6-.34-2.8-1.18-3.61-.76-.76-2.1-1.06-3.3-1.06-1.48,0-3.25.42-4.79,1.46-.7-.98-1.96-1.46-3.64-1.46-1.43,0-2.97.39-4.45,1.37l-.08-.98h-3.47v13.72Zm-22.63,0h12.21v-2.86h-7.73l3.33-3.64c3.02-3.3,4.09-5.12,4.09-7.5,0-1.6-.48-2.83-1.37-3.72-1.18-1.18-3-1.79-5.74-1.79-1.57,0-3.33.25-4.45.53v2.97c1.2-.22,2.66-.36,3.75-.36,1.37,0,2.32.22,2.91.73.5.42.76,1.04.76,1.85,0,1.6-.9,2.86-3.02,5.43l-3.72,4.54c-.81.98-1.12,1.76-1.12,2.94,0,.31.03.67.11.9Zm-20.13,0h2.58l3.08-5.18,3.44,5.18h2.63l-4.59-6.86,4.54-6.86h-2.55l-3.08,5.24-3.5-5.24h-2.6l4.62,6.94-4.56,6.78Z"/>
    <g class="cls-4">
      <path class="cls-1" d="m191.65-.75c-7.06,0-12.78,5.72-12.78,12.78h1.5c0-6.23,5.05-11.28,11.28-11.28V-.75Zm139.94,1.5c6.23,0,11.28,5.05,11.28,11.28h1.5c0-7.06-5.72-12.78-12.78-12.78V.75Zm11.28,77.22c0,6.23-5.05,11.28-11.28,11.28v1.5c7.06,0,12.78-5.72,12.78-12.78h-1.5Zm-151.22,11.28c-6.23,0-11.28-5.05-11.28-11.28h-1.5c0,7.06,5.72,12.78,12.78,12.78v-1.5Zm-11.28-11.28V12.03h-1.5v65.94h1.5Zm151.22,11.28h-139.94v1.5h139.94v-1.5Zm11.28-77.22v65.94h1.5V12.03h-1.5ZM191.65.75h139.94V-.75h-139.94V.75Z"/>
    </g>
    <rect class="cls-1" x="179.07" y="53.25" width="164" height=".75"/>
  </g>
</svg>